<svg width="464" height="411" viewBox="0 0 464 411" fill="none" xmlns="http://www.w3.org/2000/svg">
<path d="M453.977 209.804H414.272C414.252 204.828 410.222 200.8 405.251 200.8C400.28 200.8 396.25 204.828 396.229 209.804H356.524C351.54 209.804 347.501 213.852 347.501 218.845C347.501 223.838 351.54 227.887 356.524 227.887H396.227V238.737H321.75C321.634 238.605 321.521 238.47 321.396 238.344C303.028 219.94 278.606 209.804 252.629 209.804H211.37C185.393 209.804 160.971 219.94 142.603 238.344C142.478 238.47 142.366 238.605 142.249 238.737H76.797H67.7736V227.887H107.477C112.46 227.887 116.5 223.838 116.5 218.845C116.5 213.852 112.46 209.804 107.477 209.804H67.7718C67.751 204.828 63.7211 200.8 58.7501 200.8C53.7791 200.8 49.7492 204.828 49.7285 209.804H10.0235C5.0398 209.804 1 213.852 1 218.845C1 223.838 5.0398 227.887 10.0235 227.887H49.7267V238.737H40.7032C35.7196 238.737 31.6797 242.786 31.6797 247.779V265.862C31.6797 280.819 43.8235 292.987 58.7501 292.987C73.6767 292.987 85.8205 280.819 85.8205 265.862V256.82H139.961V287.274C139.961 298.564 147.293 308.163 157.434 311.56L117.178 343.519C115.018 345.233 113.758 347.844 113.758 350.606V368.937C113.758 373.93 117.798 377.979 122.781 377.979C127.765 377.979 131.805 373.93 131.805 368.937V354.978L173.559 321.828L181.899 337.109C183.481 340.009 186.518 341.812 189.816 341.812H222.977V361.706C214.507 365.256 208.539 373.644 208.539 383.404C208.539 396.367 219.064 406.912 232 406.912C244.936 406.912 255.461 396.367 255.461 383.404C255.461 373.643 249.494 365.256 241.024 361.706V341.812H274.185C277.483 341.812 280.52 340.009 282.102 337.109L290.247 322.185L330.32 354.902V368.937C330.32 373.93 334.36 377.979 339.343 377.979C344.327 377.979 348.367 373.93 348.367 368.937V350.606C348.367 347.887 347.146 345.313 345.043 343.596L306.024 311.74C316.446 308.51 324.039 298.765 324.039 287.274V256.82H378.18V265.862C378.18 280.819 390.323 292.987 405.25 292.987C420.176 292.987 432.32 280.819 432.32 265.862V247.779C432.32 242.786 428.28 238.737 423.297 238.737H417.883H414.273V227.887H453.977C458.96 227.887 463 223.838 463 218.845C463 213.851 458.961 209.804 453.977 209.804ZM67.7736 265.862C67.7736 270.848 63.7256 274.904 58.7501 274.904C53.7746 274.904 49.7267 270.848 49.7267 265.862V256.82H58.7501H67.7736V265.862ZM232 388.829C229.015 388.829 226.586 386.396 226.586 383.404C226.586 380.412 229.015 377.979 232 377.979C234.986 377.979 237.415 380.412 237.415 383.404C237.415 386.395 234.986 388.829 232 388.829ZM268.835 323.729H195.165L189.243 312.879H274.756L268.835 323.729ZM305.993 287.273C305.993 291.42 302.625 294.794 298.486 294.794H165.515C161.376 294.794 158.008 291.42 158.008 287.273V248.6C172.629 235.215 191.438 227.887 211.371 227.887H252.63C272.563 227.887 291.372 235.215 305.993 248.6V287.273ZM414.274 256.82V265.862C414.274 270.848 410.226 274.904 405.251 274.904C400.275 274.904 396.227 270.848 396.227 265.862V256.82H414.274Z" fill="#3A3D34" stroke="#2E302B" stroke-width="0.3"/>
<path d="M271.685 257.277C266.701 257.277 262.661 261.326 262.661 266.319V266.437C262.661 271.43 266.701 275.478 271.685 275.478C276.668 275.478 280.708 271.429 280.708 266.437V266.319C280.708 261.327 276.668 257.277 271.685 257.277Z" fill="#3A3D34" stroke="#F2EACB" stroke-opacity="0.5" stroke-width="0.3"/>
<path d="M232.001 257.277C227.017 257.277 222.977 261.326 222.977 266.319V266.437C222.977 271.43 227.017 275.478 232.001 275.478C236.984 275.478 241.024 271.429 241.024 266.437V266.319C241.024 261.327 236.984 257.277 232.001 257.277Z" fill="#3A3D34" stroke="#F2EACB" stroke-opacity="0.5" stroke-width="0.3"/>
<path d="M192.316 257.277C187.333 257.277 183.293 261.326 183.293 266.319V266.437C183.293 271.43 187.333 275.478 192.316 275.478C197.3 275.478 201.34 271.429 201.34 266.437V266.319C201.34 261.327 197.3 257.277 192.316 257.277Z" fill="#3A3D34" stroke="#F2EACB" stroke-opacity="0.5" stroke-width="0.3"/>
<path d="M122.78 390.646C117.797 390.646 113.757 394.695 113.757 399.688V400.289C113.757 405.282 117.797 409.331 122.78 409.331C127.764 409.331 131.804 405.283 131.804 400.289V399.688C131.804 394.696 127.764 390.646 122.78 390.646Z" fill="#3A3D34" stroke="#F2EACB" stroke-opacity="0.5" stroke-width="0.3"/>
<path d="M339.343 390.345C334.36 390.345 330.32 394.394 330.32 399.386V399.689C330.32 404.682 334.36 408.731 339.343 408.731C344.327 408.731 348.367 404.682 348.367 399.689V399.386C348.367 394.393 344.327 390.345 339.343 390.345Z" fill="#3A3D34" stroke="#F2EACB" stroke-opacity="0.5" stroke-width="0.3"/>
<path d="M126.153 161.006C126.148 160.998 126.143 160.991 126.134 160.98C126.126 160.969 126.116 160.956 126.1 160.936C126.076 160.905 126.04 160.858 126.004 160.799C125.997 160.79 125.984 160.775 125.971 160.757C125.955 160.735 125.936 160.706 125.917 160.669C121.394 152.011 119.02 142.39 118.999 132.621L118.997 132.616L118.997 132.501C119.03 126.018 120.092 119.583 122.142 113.434C115.64 103.363 112.285 91.5812 112.511 79.5915L112.511 79.586H112.511C113.422 49.1436 138.592 16.5 174.695 16.5H174.7V16.5C191.319 16.6559 207.2 23.3982 218.855 35.2478C230.51 47.0963 236.991 63.0833 236.876 79.7035C236.991 96.3244 230.511 112.312 218.855 124.159C207.201 136.009 191.321 142.751 174.7 142.907L174.693 142.907C167.094 142.876 159.576 141.342 152.571 138.396C142.997 141.639 135.697 149.469 133.123 159.225H133.146L132.964 159.863C132.952 159.905 132.937 159.939 132.925 159.964C132.919 159.976 132.913 159.988 132.908 159.997C132.581 160.836 132.018 161.562 131.29 162.09L131.274 162.102L131.273 162.102C131.269 162.105 131.264 162.11 131.255 162.119L131.252 162.122C131.223 162.15 131.15 162.221 131.048 162.274L131.035 162.281L131.022 162.287C130.906 162.339 130.79 162.382 130.678 162.418C130.598 162.451 130.499 162.492 130.39 162.526C130.038 162.639 129.67 162.701 129.297 162.708L129.287 162.708L129.286 162.708C128.97 162.708 128.652 162.669 128.343 162.589L128.298 162.577L128.27 162.564C127.859 162.443 127.47 162.253 127.123 162.003C127.016 161.928 126.925 161.851 126.847 161.785L126.153 161.006ZM126.153 161.006L126.153 161.006C126.347 161.296 126.581 161.559 126.846 161.784L126.153 161.006ZM129.175 148.847C125.521 137.563 125.759 125.367 129.868 114.217L129.87 114.212C129.909 114.103 129.916 114.003 129.919 113.96L129.919 113.956C129.92 113.935 129.921 113.924 129.922 113.919C129.922 113.919 129.922 113.919 129.922 113.919M129.175 148.847L129.922 113.919M129.175 148.847C130.22 146.911 131.431 145.07 132.796 143.345L132.8 143.339C137.59 137.461 143.984 133.101 151.203 130.785L151.237 130.771L151.251 130.766L151.261 130.763C151.261 130.763 151.261 130.763 151.262 130.762C151.264 130.761 151.27 130.759 151.281 130.754L151.285 130.752C151.304 130.743 151.348 130.724 151.398 130.708L151.425 130.699L151.454 130.693C151.624 130.659 151.798 130.638 151.971 130.629C152.502 130.49 153.063 130.52 153.575 130.715C153.742 130.741 153.905 130.779 154.064 130.828L154.095 130.837L154.124 130.85C160.591 133.772 167.6 135.29 174.695 135.307C189.301 135.154 203.248 129.216 213.481 118.794C223.715 108.371 229.397 94.3147 229.28 79.7085L229.28 79.7005C229.397 65.0943 223.715 51.0386 213.481 40.6152C203.264 30.2098 189.346 24.2743 174.767 24.1028H174.694C143.077 24.1028 120.916 52.8846 120.11 79.8146C119.943 90.8594 123.21 101.684 129.459 110.791L129.462 110.794C129.527 110.892 129.559 110.989 129.572 111.032L129.573 111.035C129.581 111.059 129.585 111.071 129.586 111.075C130.045 111.95 130.164 112.962 129.922 113.919M129.175 148.847L129.922 113.919" fill="#3A3D34" stroke="#3A3D34"/>
<path d="M174.686 62.7031L174.681 62.7032C172.176 62.762 169.75 61.8164 167.944 60.079C166.139 58.3415 165.1 55.9548 165.061 53.4479C165.022 50.9413 165.986 48.5241 167.737 46.7305C169.489 44.9385 171.883 43.9187 174.39 43.8991L174.686 62.7031ZM174.686 62.7031L174.693 62.703V62.7031C177.153 62.6692 179.499 61.6628 181.218 59.9027L181.218 59.9026C182.939 58.1425 183.892 55.7699 183.866 53.3077L183.866 53.3026C183.866 50.7957 182.866 48.3938 181.087 46.6284C179.307 44.8631 176.897 43.881 174.39 43.8991L174.686 62.7031ZM191.461 53.8027H191.473L191.466 53.2958C191.406 48.8601 189.589 44.6295 186.417 41.5285L186.417 41.5284C183.245 38.4291 178.974 36.7115 174.538 36.7527C170.102 36.7937 165.862 38.5886 162.748 41.7473C159.633 44.906 157.896 49.17 157.916 53.6055L157.916 53.6057C157.937 58.0412 159.714 62.2886 162.857 65.4183L162.857 65.4185C166.002 68.5466 170.257 70.3034 174.692 70.3034L174.696 70.3034C179.174 70.2669 183.453 68.4573 186.597 65.2691C189.624 62.2006 191.359 58.0983 191.461 53.8027Z" fill="#3A3D34" stroke="#3A3D34"/>
<path d="M154.731 123.073V123.106H155.231H194.154C195.162 123.106 196.129 122.706 196.841 121.993C197.554 121.281 197.954 120.314 197.954 119.306V86.4417V86.4412C197.95 81.8978 196.142 77.5426 192.93 74.3284L192.93 74.3283C189.717 71.1158 185.361 69.3084 180.817 69.3037H180.816L168.432 69.3037L168.431 69.3037C163.923 69.3083 159.603 71.1024 156.416 74.2883L156.416 74.2884C153.228 77.4759 151.436 81.7972 151.431 86.3039V86.3044V119.306C151.431 120.314 151.831 121.281 152.544 121.993C153.138 122.587 153.908 122.964 154.731 123.073ZM187.558 79.7013L187.558 79.7014C189.346 81.4891 190.351 83.9139 190.354 86.4424V115.506H159.031L159.031 86.3054C159.031 86.3052 159.031 86.3051 159.031 86.305C159.034 83.8121 160.025 81.4229 161.787 79.6603C163.55 77.899 165.939 76.9072 168.432 76.9043C168.432 76.9043 168.432 76.9043 168.433 76.9043H180.816C180.816 76.9043 180.816 76.9043 180.816 76.9043C183.346 76.9072 185.77 77.9124 187.558 79.7013Z" fill="#3A3D34" stroke="#3A3D34"/>
<path d="M286.465 182.304C291.923 182.285 297.334 181.284 302.438 179.349C306.001 180.512 309.196 182.594 311.698 185.385C313.525 187.512 314.858 190.016 315.598 192.719L315.6 192.725C315.727 193.166 315.931 193.577 316.206 193.944C316.266 194.025 316.331 194.088 316.373 194.129C316.425 194.178 316.444 194.195 316.465 194.218L317.337 195.193V194.981C317.353 194.991 317.369 195.001 317.387 195.011L317.4 195.018L317.413 195.025C317.545 195.088 317.682 195.145 317.821 195.192C318.244 195.388 318.704 195.492 319.171 195.498L319.176 195.499L319.216 195.506H319.258C319.344 195.506 319.42 195.491 319.453 195.485C319.479 195.48 319.49 195.478 319.494 195.477C319.74 195.468 319.983 195.434 320.221 195.378L320.25 195.373L320.281 195.364C320.325 195.352 320.361 195.335 320.387 195.322C320.388 195.321 320.389 195.321 320.39 195.32C320.776 195.194 321.139 195.008 321.466 194.766C321.467 194.766 321.468 194.765 321.469 194.764L321.481 194.755C321.55 194.706 321.635 194.645 321.72 194.572C322.038 194.31 322.311 193.997 322.526 193.645L322.542 193.63L322.577 193.559C328.172 183.847 329.28 172.19 325.625 161.603C330.201 154.888 332.579 146.915 332.427 138.787L332.426 138.775L332.426 138.763C331.653 127.078 326.481 116.119 317.955 108.091L317.955 108.091C309.569 100.199 298.551 95.7167 287.051 95.5074L287.052 95.5H286.463C261.143 95.5 240.5 114.942 240.5 138.902C240.5 162.862 261.145 182.304 286.463 182.304H286.465ZM317.443 180.409C313.809 176.341 309.117 173.36 303.887 171.803L303.859 171.793L303.847 171.789L303.835 171.785C303.811 171.778 303.785 171.767 303.733 171.746C303.688 171.727 303.618 171.698 303.541 171.675L303.511 171.666L303.48 171.66C303.327 171.634 303.172 171.619 303.019 171.613C302.515 171.503 301.99 171.53 301.5 171.688C301.352 171.708 301.203 171.737 301.053 171.778L301.022 171.786L300.992 171.799C296.387 173.711 291.45 174.697 286.462 174.703C265.277 174.702 248.1 158.611 248.1 138.901C248.1 119.192 265.278 103.1 286.461 103.099C296.212 103.149 305.582 106.88 312.699 113.546C319.81 120.208 324.146 129.31 324.833 139.03C324.908 146.156 322.624 153.106 318.34 158.799L318.316 158.831L318.298 158.866C318.24 158.975 318.188 159.088 318.143 159.203C318.022 159.415 317.921 159.637 317.844 159.87L317.844 159.87L317.842 159.877C317.698 160.332 317.639 160.807 317.667 161.283L317.668 161.288C317.686 161.536 317.73 161.781 317.797 162.017C317.813 162.136 317.835 162.253 317.862 162.369L317.871 162.406L317.885 162.441C319.364 166.152 320.13 170.109 320.145 174.104C320.142 176.925 319.76 179.732 319.009 182.448C318.523 181.748 318.003 181.071 317.452 180.419L317.452 180.419L317.443 180.409Z" fill="#3A3D34" stroke="#3A3D34"/>
<path d="M285.749 0.49998L285.744 0.50002C276.061 0.586653 266.808 4.50894 260.014 11.4099C253.222 18.3081 249.443 27.6189 249.504 37.2993C249.354 47.0077 253.105 56.3706 259.917 63.2905C266.73 70.2118 276.036 74.1092 285.748 74.1092C295.46 74.1092 304.765 70.2118 311.577 63.2905C318.389 56.3706 322.14 47.0078 321.99 37.2995C322.052 27.6194 318.274 18.3081 311.482 11.4099C304.688 4.51052 295.436 0.58644 285.754 0.50002V0.5H285.75L285.749 0.49998ZM257.105 37.3057H257.105L257.105 37.292C256.957 29.6002 259.909 22.1735 265.298 16.6809C270.684 11.1903 278.054 8.09576 285.748 8.09576C293.44 8.09576 300.81 11.1902 306.196 16.6809C311.585 22.1731 314.537 29.6002 314.389 37.292L314.389 37.292L314.389 37.3058C314.453 44.973 311.473 52.3533 306.102 57.8264L306.102 57.8265C300.733 63.2998 293.415 66.4192 285.749 66.5029C278.082 66.419 270.762 63.2995 265.393 57.8279C260.023 52.3533 257.042 44.9744 257.105 37.3057Z" fill="#3A3D34" stroke="#3A3D34"/>
<path d="M299.062 18.2391C296.363 17.2667 293.409 17.2638 290.709 18.2332C288.807 18.9286 287.104 20.0763 285.744 21.5775C284.111 19.7551 281.972 18.4645 279.599 17.8693C277.227 17.2741 274.731 17.4023 272.433 18.2391C268.769 19.8022 265.897 22.7858 264.475 26.5072C262.601 31.4189 262.547 36.8395 264.324 41.7882C268.039 54.5882 279.571 61.1602 284.353 63.3938C284.403 63.4173 284.457 63.407 284.507 63.4276C284.895 63.5971 285.312 63.6899 285.735 63.7002L285.746 63.7032H285.752L285.764 63.7002H285.763C286.185 63.6899 286.601 63.5971 286.987 63.4291C287.038 63.4085 287.093 63.4173 287.144 63.3938C291.93 61.1588 303.455 54.5792 307.203 41.6837C308.952 36.7644 308.887 31.3839 307.019 26.5091C305.599 22.7876 302.726 19.8028 299.062 18.2395L299.062 18.2391ZM300.834 39.948C298.243 47.3249 292.812 53.3605 285.749 56.7139C278.657 53.3386 273.212 47.2641 270.631 39.8447C269.331 36.4178 269.287 32.6402 270.508 29.1839C271.23 27.1051 272.743 25.3961 274.72 24.4298C275.955 23.9907 277.303 23.9922 278.536 24.4357C280.472 25.2887 281.959 26.9196 282.629 28.9261C282.653 28.9924 282.706 29.0366 282.732 29.1C283.099 29.8793 283.73 30.5055 284.51 30.8694C284.574 30.8959 284.617 30.9475 284.681 30.9696L284.683 30.9681C284.815 30.9946 284.95 31.0123 285.085 31.0211C285.526 31.139 285.991 31.139 286.432 31.0182C286.564 31.0079 286.697 30.9902 286.828 30.9637C286.893 30.9416 286.934 30.89 286.996 30.865H286.997C287.781 30.4966 288.41 29.8646 288.774 29.0779C288.799 29.016 288.851 28.9747 288.871 28.9099V28.9114C289.554 26.9151 291.036 25.2945 292.961 24.4356C294.193 23.9937 295.541 23.9907 296.774 24.4298C298.751 25.3962 300.266 27.1052 300.986 29.1854C302.212 32.677 302.157 36.4913 300.834 39.9476L300.834 39.948Z" fill="#3A3D34"/>
<path d="M312.265 154.026L312.267 123.964C312.267 123.859 312.258 123.756 312.24 123.655L301.429 135.175C301.724 136.381 301.883 137.642 301.883 138.94C301.883 139.322 301.864 139.699 301.839 140.063C301.839 140.068 301.838 140.076 301.838 140.086C301.836 140.139 301.83 140.26 301.818 140.356C301.818 140.364 301.817 140.377 301.816 140.402L301.816 140.406C301.814 140.433 301.812 140.477 301.808 140.524C301.796 140.652 301.768 140.763 301.739 140.854C301.186 143.696 298.682 145.856 295.67 145.856C293.763 145.856 292.062 144.992 290.926 143.642C289.505 145.316 287.385 146.39 285.011 146.39C280.734 146.39 277.252 142.9 277.252 138.624C277.252 134.348 280.734 130.865 285.011 130.865C286.86 130.865 288.554 131.518 289.885 132.596C290.188 132.255 290.629 132.042 291.117 132.042C292.018 132.042 292.764 132.774 292.764 133.689V138.472C292.764 138.471 292.764 138.476 292.765 138.504L292.766 138.509C292.767 138.532 292.77 138.577 292.77 138.624C292.77 138.671 292.767 138.716 292.766 138.739L292.765 138.743C292.764 138.772 292.764 138.777 292.764 138.776V139.661C292.764 141.253 294.064 142.554 295.664 142.554C297.123 142.554 298.334 141.463 298.525 140.05C298.554 139.67 298.576 139.298 298.576 138.933C298.576 131.998 292.939 126.362 286.011 126.362C279.082 126.362 273.44 131.999 273.44 138.933C273.44 145.868 279.082 151.504 286.011 151.504C288.7 151.504 291.261 150.664 293.43 149.079C294.169 148.533 295.204 148.704 295.736 149.437C296.266 150.166 296.118 151.199 295.379 151.738L312.265 154.026ZM312.265 154.026L312.241 154.027V154.747C312.241 155.801 311.381 156.659 310.336 156.659H261.66C260.607 156.659 259.749 155.8 259.749 154.747V123.957C259.749 123.756 259.781 123.561 259.842 123.377L312.265 154.026ZM315.542 123.959C315.542 121.623 314 119.642 311.882 118.981L312.111 118.746H310.336H261.66C258.784 118.746 256.448 121.083 256.448 123.959V154.748C256.448 157.624 258.784 159.961 261.66 159.961H310.336C313.206 159.961 315.542 157.623 315.542 154.748L315.542 123.959ZM289.45 138.758C289.372 141.147 287.423 143.065 285.025 143.083H284.992C282.533 143.083 280.533 141.079 280.533 138.618C280.533 136.157 282.533 134.154 284.992 134.154C287.406 134.154 289.377 136.08 289.45 138.478V138.758ZM309.194 122.047L300.123 131.715C297.493 126.585 292.154 123.063 285.998 123.063C279.926 123.063 274.649 126.49 271.983 131.504L263.115 122.047L309.194 122.047Z" fill="#3A3D34" stroke="#3A3D34" stroke-width="1.5"/>
</svg>
