<svg width="70" height="70" viewBox="0 0 70 70" fill="none" xmlns="http://www.w3.org/2000/svg">
<path d="M67.4594 34.0417C68.4855 32.9924 69.205 31.6823 69.54 30.2534C69.8749 28.8244 69.8124 27.331 69.3594 25.935C68.9415 24.5473 68.1402 23.3057 67.0478 22.3533C65.9553 21.401 64.6161 20.7764 63.1844 20.5517L49.1244 18.4617C48.878 18.4259 48.6445 18.3289 48.4454 18.1795C48.2462 18.0301 48.0877 17.8332 47.9844 17.6067L41.651 4.40171C41.0551 3.1075 40.1059 2.00781 38.9127 1.22913C37.7194 0.450454 36.3306 0.0244205 34.906 3.84869e-05C33.4546 -0.00460884 32.033 0.411713 30.8133 1.19857C29.5937 1.98543 28.6284 3.10907 28.0344 4.43337L21.701 17.67C21.6001 17.8983 21.4423 18.0967 21.2427 18.2465C21.0431 18.3962 20.8084 18.4921 20.561 18.525L6.53269 20.71C5.10246 20.9295 3.76458 21.5526 2.67632 22.5062C1.58806 23.4599 0.794655 24.7043 0.389356 26.0934C-0.0632926 27.4918 -0.122507 28.9878 0.218195 30.4176C0.558896 31.8475 1.28638 33.156 2.32102 34.2L12.7394 44.4917C12.9172 44.6664 13.0503 44.8813 13.1275 45.1183C13.2047 45.3554 13.2236 45.6075 13.1827 45.8534L10.8077 60.42C10.5741 61.8746 10.7461 63.3654 11.3048 64.7286C11.8634 66.0917 12.7872 67.2744 13.9744 68.1467C15.2443 69.128 16.8028 69.6623 18.4077 69.6667C19.6578 69.6596 20.8869 69.3441 21.986 68.7484L34.6527 61.845C34.8693 61.72 35.1151 61.6541 35.3652 61.6541C35.6153 61.6541 35.8611 61.72 36.0777 61.845L48.7444 68.685C49.9981 69.3652 51.4221 69.6673 52.844 69.5549C54.2659 69.4425 55.6247 68.9204 56.756 68.0517C57.9431 67.172 58.8661 65.9834 59.4245 64.6154C59.9829 63.2475 60.1552 61.7525 59.9227 60.2934L57.4844 45.7584C57.4394 45.5101 57.4532 45.2548 57.5247 45.0128C57.5962 44.7708 57.7233 44.549 57.896 44.365L67.4594 34.0417ZM53.0194 39.8367C52.1183 40.7435 51.4426 41.8491 51.0466 43.0646C50.6506 44.2801 50.5454 45.5715 50.7394 46.835L53.1777 61.4017C53.2361 61.683 53.2135 61.9751 53.1126 62.2442C53.0117 62.5132 52.8366 62.7481 52.6077 62.9217C52.3719 63.0744 52.097 63.1556 51.816 63.1556C51.5351 63.1556 51.2602 63.0744 51.0244 62.9217L38.3577 56.0817C37.2696 55.4886 36.0502 55.1778 34.811 55.1778C33.5718 55.1778 32.3524 55.4886 31.2644 56.0817L18.5977 62.985C18.3619 63.1377 18.0869 63.2189 17.806 63.2189C17.5251 63.2189 17.2502 63.1377 17.0144 62.985C16.7767 62.818 16.5931 62.5851 16.4862 62.315C16.3792 62.0449 16.3537 61.7495 16.4127 61.465L19.0727 46.93C19.2788 45.674 19.1886 44.3871 18.8093 43.172C18.4299 41.957 17.7719 40.8474 16.8877 39.9317L6.65936 29.64C6.47696 29.4242 6.35696 29.1627 6.31232 28.8836C6.26767 28.6046 6.30007 28.3187 6.40602 28.0567C6.48754 27.778 6.64718 27.5285 6.86604 27.3377C7.0849 27.1469 7.35383 27.0228 7.64102 26.98L21.6694 24.8267C22.8801 24.6087 24.0198 24.0999 24.9906 23.3443C25.9614 22.5886 26.7342 21.6086 27.2427 20.4884L33.576 7.22004C33.6871 6.95868 33.8722 6.73551 34.1085 6.57798C34.3448 6.42045 34.622 6.33542 34.906 6.33337C35.1918 6.32653 35.4734 6.40395 35.7155 6.55598C35.9576 6.70802 36.1497 6.92795 36.2677 7.18837L42.601 20.425C43.1351 21.5542 43.9361 22.5363 44.9347 23.2867C45.9333 24.037 47.0995 24.533 48.3327 24.7317L62.3927 26.8217C62.6746 26.8562 62.9397 26.9741 63.1541 27.1603C63.3685 27.3464 63.5224 27.5925 63.596 27.8667C63.696 28.1438 63.7133 28.4439 63.6458 28.7306C63.5783 29.0173 63.429 29.2783 63.216 29.4817L53.0194 39.8367Z" fill="#F2EACB"/>
<path d="M46.1782 35.2009C46.546 34.8249 46.8039 34.3553 46.9239 33.8432C47.044 33.331 47.0216 32.7958 46.8592 32.2954C46.7094 31.798 46.4223 31.353 46.0307 31.0117C45.6392 30.6704 45.1592 30.4465 44.646 30.366L39.6067 29.6169C39.5184 29.6041 39.4348 29.5693 39.3634 29.5157C39.292 29.4622 39.2352 29.3916 39.1982 29.3104L36.9282 24.5776C36.7146 24.1138 36.3744 23.7196 35.9468 23.4405C35.5191 23.1614 35.0213 23.0088 34.5107 23C33.9905 22.9983 33.481 23.1476 33.0439 23.4296C32.6067 23.7116 32.2608 24.1143 32.0478 24.589L29.7779 29.3331C29.7417 29.4149 29.6852 29.4861 29.6136 29.5397C29.5421 29.5934 29.458 29.6278 29.3693 29.6396L24.3414 30.4227C23.8288 30.5014 23.3493 30.7247 22.9592 31.0665C22.5692 31.4083 22.2848 31.8543 22.1395 32.3522C21.9773 32.8534 21.9561 33.3896 22.0782 33.902C22.2003 34.4145 22.4611 34.8835 22.8319 35.2577L26.5659 38.9464C26.6297 39.009 26.6774 39.086 26.705 39.1709C26.7327 39.2559 26.7395 39.3463 26.7248 39.4344L25.8736 44.6553C25.7899 45.1766 25.8515 45.7109 26.0518 46.1995C26.252 46.688 26.5831 47.1119 27.0086 47.4246C27.4637 47.7763 28.0223 47.9678 28.5975 47.9694C29.0456 47.9668 29.4861 47.8538 29.88 47.6402L34.4199 45.166C34.4976 45.1212 34.5856 45.0976 34.6753 45.0976C34.765 45.0976 34.853 45.1212 34.9307 45.166L39.4706 47.6175C39.9199 47.8613 40.4303 47.9696 40.9399 47.9293C41.4495 47.889 41.9366 47.7019 42.342 47.3905C42.7675 47.0752 43.0983 46.6492 43.2984 46.1589C43.4986 45.6686 43.5603 45.1328 43.477 44.6099L42.6031 39.4003C42.5869 39.3114 42.5919 39.2198 42.6175 39.1331C42.6431 39.0464 42.6887 38.9669 42.7506 38.901L46.1782 35.2009ZM41.0028 37.2779C40.6798 37.603 40.4376 37.9992 40.2957 38.4348C40.1538 38.8705 40.1161 39.3334 40.1856 39.7862L41.0595 45.0071C41.0804 45.1079 41.0723 45.2126 41.0362 45.309C41 45.4055 40.9373 45.4897 40.8552 45.5519C40.7707 45.6066 40.6722 45.6357 40.5715 45.6357C40.4708 45.6357 40.3722 45.6066 40.2877 45.5519L35.7478 43.1003C35.3579 42.8878 34.9208 42.7764 34.4767 42.7764C34.0325 42.7764 33.5955 42.8878 33.2055 43.1003L28.6656 45.5746C28.5811 45.6293 28.4826 45.6584 28.3819 45.6584C28.2812 45.6584 28.1827 45.6293 28.0981 45.5746C28.013 45.5147 27.9471 45.4312 27.9088 45.3344C27.8705 45.2376 27.8614 45.1317 27.8825 45.0298L28.8359 39.8203C28.9098 39.3701 28.8774 38.9088 28.7415 38.4734C28.6055 38.0379 28.3697 37.6402 28.0527 37.312L24.3868 33.6233C24.3214 33.546 24.2784 33.4522 24.2624 33.3522C24.2464 33.2522 24.258 33.1497 24.296 33.0559C24.3252 32.956 24.3824 32.8665 24.4609 32.7982C24.5393 32.7298 24.6357 32.6853 24.7386 32.67L29.7666 31.8982C30.2005 31.82 30.609 31.6377 30.9569 31.3669C31.3049 31.096 31.5819 30.7448 31.7641 30.3433L34.034 25.5877C34.0739 25.4941 34.1402 25.4141 34.2249 25.3576C34.3096 25.3012 34.4089 25.2707 34.5107 25.27C34.6132 25.2675 34.7141 25.2952 34.8009 25.3497C34.8876 25.4042 34.9565 25.4831 34.9988 25.5764L37.2687 30.3206C37.4601 30.7253 37.7472 31.0773 38.1051 31.3462C38.463 31.6151 38.881 31.7929 39.323 31.8641L44.3623 32.6132C44.4633 32.6256 44.5583 32.6678 44.6352 32.7346C44.712 32.8013 44.7672 32.8895 44.7936 32.9878C44.8294 33.0871 44.8356 33.1946 44.8114 33.2974C44.7872 33.4002 44.7337 33.4937 44.6574 33.5666L41.0028 37.2779Z" fill="#87B153" stroke="#87B153" stroke-width="2"/>
</svg>
