<svg width="185" height="76" viewBox="0 0 185 76" fill="none" xmlns="http://www.w3.org/2000/svg">
<path d="M168.743 38.0594C168.113 38.0594 167.509 38.3096 167.064 38.755C166.618 39.2004 166.368 39.8045 166.368 40.4344V62.8188C166.368 63.814 165.973 64.7684 165.269 65.4722C164.565 66.1759 163.611 66.5713 162.616 66.5713H122.538C121.542 66.5713 120.588 66.1759 119.884 65.4722C119.181 64.7684 118.785 63.814 118.785 62.8188V22.7406C118.788 21.7475 119.185 20.796 119.888 20.0949C120.592 19.3937 121.544 19 122.538 19H144.922C145.552 19 146.156 18.7498 146.601 18.3044C147.047 17.859 147.297 17.2549 147.297 16.625C147.297 15.9951 147.047 15.391 146.601 14.9456C146.156 14.5002 145.552 14.25 144.922 14.25H122.538C120.284 14.2531 118.123 15.1499 116.529 16.7438C114.935 18.3376 114.038 20.4985 114.035 22.7525V62.8188C114.038 65.0728 114.935 67.2336 116.529 68.8275C118.123 70.4213 120.284 71.3181 122.538 71.3213H162.616C164.87 71.3181 167.031 70.4213 168.624 68.8275C170.218 67.2336 171.115 65.0728 171.118 62.8188V40.4344C171.118 39.8045 170.868 39.2004 170.423 38.755C169.977 38.3096 169.373 38.0594 168.743 38.0594Z" fill="#F2EACB"/>
<path d="M177.875 7.44563L176.688 6.32938C176.071 5.7688 175.349 5.33543 174.564 5.05408C173.779 4.77273 172.947 4.64892 172.114 4.68973C171.281 4.73054 170.464 4.93517 169.711 5.29192C168.957 5.64866 168.281 6.15051 167.722 6.76875C167.335 7.2082 167.011 7.69988 166.76 8.22938C166.434 8.08972 166.081 8.0248 165.727 8.03938C165.1 8.07007 164.511 8.34757 164.088 8.81125L138.581 36.9075C138.283 37.2417 138.085 37.6533 138.011 38.095L135.636 49.7681C135.564 50.1704 135.597 50.5844 135.732 50.9702C135.866 51.3559 136.098 51.7004 136.405 51.9703C136.712 52.2401 137.083 52.4262 137.483 52.5106C137.883 52.595 138.298 52.5747 138.688 52.4519L150.076 49.0081C150.487 48.8833 150.856 48.6494 151.145 48.3313L176.688 20.1875C177.015 19.8227 177.222 19.3656 177.279 18.8787C177.337 18.3918 177.242 17.8991 177.008 17.4681C177.842 16.9561 178.544 16.2557 179.057 15.4234C179.571 14.591 179.883 13.6498 179.967 12.6753C180.051 11.7008 179.906 10.72 179.543 9.81182C179.179 8.9036 178.608 8.09319 177.875 7.44563ZM171.213 9.95125C171.354 9.7957 171.524 9.66946 171.713 9.57979C171.903 9.49012 172.108 9.43879 172.318 9.42875H172.401C172.796 9.42965 173.177 9.57782 173.47 9.84438L174.657 10.9606C174.89 11.1725 175.055 11.4487 175.131 11.7544C175.207 12.06 175.19 12.3813 175.083 12.6776C174.977 12.9739 174.784 13.2318 174.531 13.4187C174.277 13.6056 173.974 13.713 173.66 13.7275C173.445 13.7415 173.229 13.713 173.026 13.6437C172.822 13.5745 172.634 13.4657 172.472 13.3238L172.033 12.9319L171.237 12.2075C171.087 12.0612 170.967 11.8867 170.885 11.6939C170.802 11.5012 170.758 11.294 170.756 11.0843C170.754 10.8746 170.793 10.6666 170.872 10.4722C170.95 10.2777 171.066 10.1007 171.213 9.95125ZM148.081 44.65L141.063 46.7519L142.488 39.6269L166 13.7631L169.1 16.625L169.349 16.8506L171.51 18.81L148.081 44.65Z" fill="#87B153"/>
<path d="M38.0594 16.2568C38.0594 16.8867 38.3096 17.4908 38.755 17.9362C39.2004 18.3816 39.8045 18.6318 40.4344 18.6318H62.8188C63.814 18.6318 64.7684 19.0272 65.4722 19.7309C66.1759 20.4347 66.5713 21.3891 66.5713 22.3843V62.4625C66.5713 63.4577 66.1759 64.4122 65.4722 65.1159C64.7684 65.8196 63.814 66.215 62.8188 66.215H22.7406C21.7475 66.2118 20.796 65.8151 20.0949 65.1117C19.3937 64.4083 19 63.4556 19 62.4625V40.0781C19 39.4482 18.7498 38.8441 18.3044 38.3987C17.859 37.9533 17.2549 37.7031 16.625 37.7031C15.9951 37.7031 15.391 37.9533 14.9456 38.3987C14.5002 38.8441 14.25 39.4482 14.25 40.0781L14.25 62.4625C14.2531 64.7165 15.1499 66.8773 16.7438 68.4712C18.3376 70.065 20.4985 70.9618 22.7525 70.965H62.8188C65.0728 70.9618 67.2336 70.065 68.8275 68.4712C70.4213 66.8773 71.3181 64.7165 71.3213 62.4625V22.3843C71.3181 20.1303 70.4213 17.9695 68.8275 16.3756C67.2336 14.7818 65.0728 13.885 62.8188 13.8818H40.4344C39.8045 13.8818 39.2004 14.1321 38.755 14.5775C38.3096 15.0229 38.0594 15.627 38.0594 16.2568Z" fill="#F2EACB"/>
<path d="M7.44563 7.12493L6.32938 8.31243C5.7688 8.9296 5.33543 9.65127 5.05408 10.4361C4.77273 11.221 4.64892 12.0536 4.68973 12.8864C4.73054 13.7191 4.93517 14.5357 5.29192 15.2892C5.64866 16.0428 6.15051 16.7186 6.76875 17.278C7.2082 17.6655 7.69988 17.9892 8.22938 18.2399C8.08972 18.5658 8.0248 18.9188 8.03938 19.2731C8.07007 19.8998 8.34757 20.489 8.81125 20.9118L36.9075 46.4193C37.2417 46.7175 37.6533 46.9151 38.095 46.9893L49.7681 49.3643C50.1704 49.4363 50.5844 49.4034 50.9702 49.2686C51.3559 49.1338 51.7004 48.9017 51.9703 48.5949C52.2401 48.288 52.4262 47.9167 52.5106 47.5168C52.595 47.117 52.5747 46.7022 52.4519 46.3124L49.0081 34.9243C48.8833 34.5134 48.6494 34.1441 48.3313 33.8555L20.1875 8.31243C19.8227 7.98485 19.3656 7.77817 18.8787 7.72077C18.3918 7.66336 17.8991 7.75804 17.4681 7.9918C16.9561 7.15837 16.2557 6.45658 15.4234 5.94275C14.591 5.42891 13.6498 5.11735 12.6753 5.03306C11.7008 4.94877 10.72 5.0941 9.81182 5.45739C8.9036 5.82067 8.09319 6.3918 7.44563 7.12493ZM9.95125 13.7868C9.7957 13.6462 9.66946 13.4763 9.57979 13.2868C9.49012 13.0972 9.43879 12.8919 9.42875 12.6824V12.5993C9.42965 12.2038 9.57782 11.8228 9.84438 11.5305L10.9606 10.3431C11.1725 10.11 11.4487 9.94515 11.7544 9.86925C12.06 9.79334 12.3813 9.80983 12.6776 9.91664C12.9739 10.0235 13.2318 10.2158 13.4187 10.4692C13.6056 10.7227 13.713 11.026 13.7275 11.3406C13.7415 11.5553 13.713 11.7707 13.6437 11.9745C13.5745 12.1782 13.4657 12.3663 13.3238 12.528L12.9319 12.9674L12.2075 13.7631C12.0612 13.9133 11.8867 14.0331 11.6939 14.1156C11.5012 14.1981 11.294 14.2418 11.0843 14.244C10.8746 14.2462 10.6666 14.2069 10.4722 14.1285C10.2777 14.05 10.1007 13.9339 9.95125 13.7868ZM44.65 36.9193L46.7519 43.9374L39.6269 42.5124L13.7631 18.9999L16.625 15.9006L16.8506 15.6512L18.81 13.4899L44.65 36.9193Z" fill="#F59927"/>
</svg>
