<svg width="76" height="76" viewBox="0 0 76 76" fill="none" xmlns="http://www.w3.org/2000/svg">
<path d="M28.2817 11.0723C28.0182 10.5005 27.5385 10.0567 26.9479 9.83852C26.3574 9.62031 25.7044 9.64548 25.1324 9.90851C21.237 11.703 17.7545 14.2832 14.9033 17.4871C14.4822 17.9564 14.2648 18.5737 14.2989 19.2033C14.333 19.8329 14.6157 20.4231 15.085 20.8442C15.5543 21.2653 16.1716 21.4827 16.8012 21.4486C17.4307 21.4145 18.021 21.1318 18.4421 20.6625C20.8612 17.9445 23.8146 15.7543 27.1179 14.2286C27.4019 14.0982 27.6574 13.913 27.8697 13.6836C28.082 13.4542 28.2469 13.1852 28.355 12.892C28.4631 12.5988 28.5123 12.2871 28.4997 11.9748C28.4871 11.6626 28.413 11.3558 28.2817 11.0723Z" fill="#F2EACB"/>
<path d="M59.2279 53.238C57.2157 56.0362 54.6749 58.4132 51.749 60.2348C51.4839 60.4004 51.2541 60.6166 51.0725 60.8711C50.891 61.1255 50.7613 61.4132 50.691 61.7178C50.6206 62.0224 50.6109 62.3378 50.6625 62.6461C50.714 62.9544 50.8258 63.2495 50.9914 63.5146C51.157 63.7798 51.3732 64.0096 51.6277 64.1912C51.8822 64.3727 52.1699 64.5024 52.4745 64.5727C52.779 64.6431 53.0945 64.6528 53.4028 64.6012C53.7111 64.5497 54.0062 64.4379 54.2713 64.2723C57.7185 62.1223 60.7124 59.3195 63.0849 56.0215C63.4528 55.51 63.6024 54.8734 63.5008 54.2516C63.3993 53.6298 63.0549 53.0739 62.5434 52.706C62.032 52.3382 61.3953 52.1886 60.7735 52.2901C60.1517 52.3917 59.5958 52.7361 59.2279 53.2475V53.238Z" fill="#F2EACB"/>
<path d="M57.5586 20.6625C57.7657 20.8982 58.0174 21.0905 58.2992 21.2283C58.5811 21.3662 58.8875 21.4468 59.2006 21.4655C59.5138 21.4843 59.8276 21.4408 60.1239 21.3376C60.4202 21.2344 60.6931 21.0735 60.9268 20.8642C61.1606 20.655 61.3505 20.4014 61.4858 20.1183C61.621 19.8352 61.6987 19.5281 61.7146 19.2148C61.7305 18.9014 61.6841 18.5881 61.5781 18.2928C61.4722 17.9974 61.3088 17.726 61.0973 17.4942C58.2461 14.2903 54.7636 11.7101 50.8682 9.91562C50.5836 9.77465 50.2736 9.69219 49.9566 9.67311C49.6396 9.65404 49.322 9.69873 49.0226 9.80456C48.7231 9.91039 48.448 10.0752 48.2133 10.2892C47.9787 10.5033 47.7894 10.7622 47.6566 11.0507C47.5238 11.3392 47.4502 11.6513 47.4402 11.9688C47.4301 12.2862 47.4838 12.6024 47.5982 12.8987C47.7125 13.195 47.8851 13.4654 48.1057 13.6938C48.3263 13.9222 48.5905 14.1041 48.8827 14.2286C52.186 15.7543 55.1394 17.9445 57.5586 20.6625Z" fill="#F2EACB"/>
<path d="M24.2511 60.2347C21.3252 58.4132 18.7845 56.0362 16.7722 53.238C16.5901 52.9847 16.3599 52.7698 16.0947 52.6056C15.8295 52.4413 15.5345 52.3309 15.2266 52.2806C14.6049 52.179 13.9682 52.3286 13.4567 52.6965C12.9453 53.0644 12.6009 53.6203 12.4993 54.2421C12.3978 54.8639 12.5474 55.5005 12.9152 56.012C15.2877 59.31 18.2817 62.1127 21.7289 64.2627C22.2643 64.5972 22.9106 64.7053 23.5257 64.5632C24.1408 64.4211 24.6743 64.0405 25.0087 63.5051C25.3432 62.9697 25.4513 62.3234 25.3092 61.7083C25.1671 61.0932 24.7865 60.5597 24.2511 60.2252V60.2347Z" fill="#F2EACB"/>
<path d="M42.3535 17.4729C43.5306 16.5643 44.394 15.3102 44.8227 13.8863C45.2513 12.4625 45.2237 10.9401 44.7437 9.53274C44.2638 8.12532 43.3555 6.90335 42.1462 6.03806C40.9368 5.17276 39.4871 4.70752 38.0001 4.70752C36.5131 4.70752 35.0633 5.17276 33.854 6.03806C32.6447 6.90335 31.7364 8.12532 31.2565 9.53274C30.7765 10.9401 30.7489 12.4625 31.1775 13.8863C31.6062 15.3102 32.4696 16.5643 33.6467 17.4729C31.5782 18.2851 29.7782 19.6598 28.4502 21.4415C27.801 22.3163 27.4091 23.3551 27.3189 24.4408C27.2287 25.5264 27.4437 26.6157 27.9396 27.5856C28.4328 28.5754 29.1926 29.4077 30.1334 29.9889C31.0741 30.5701 32.1585 30.877 33.2643 30.875H42.7358C43.8417 30.877 44.926 30.5701 45.8668 29.9889C46.8076 29.4077 47.5674 28.5754 48.0606 27.5856C48.5565 26.6157 48.7715 25.5264 48.6813 24.4408C48.591 23.3551 48.1992 22.3163 47.55 21.4415C46.2219 19.6598 44.4219 18.2851 42.3535 17.4729ZM38.0001 9.50001C38.4698 9.50001 38.929 9.6393 39.3196 9.90027C39.7101 10.1612 40.0145 10.5322 40.1943 10.9661C40.3741 11.4001 40.4211 11.8776 40.3295 12.3384C40.2378 12.7991 40.0116 13.2222 39.6795 13.5544C39.3473 13.8865 38.9241 14.1127 38.4634 14.2044C38.0027 14.296 37.5252 14.249 37.0912 14.0692C36.6572 13.8895 36.2863 13.5851 36.0253 13.1945C35.7644 12.8039 35.6251 12.3447 35.6251 11.875C35.6251 11.2451 35.8753 10.641 36.3207 10.1956C36.7661 9.75024 37.3702 9.50001 38.0001 9.50001ZM43.8212 25.4458C43.7241 25.6509 43.5703 25.8238 43.3779 25.9442C43.1856 26.0646 42.9627 26.1273 42.7358 26.125H33.2643C33.0374 26.1273 32.8146 26.0646 32.6223 25.9442C32.4299 25.8238 32.2761 25.6509 32.179 25.4458C32.0769 25.2606 32.0308 25.0498 32.0464 24.839C32.062 24.6281 32.1386 24.4264 32.2668 24.2583C32.9292 23.3606 33.793 22.6311 34.7888 22.1283C35.7846 21.6255 36.8846 21.3636 38.0001 21.3636C39.1156 21.3636 40.2156 21.6255 41.2114 22.1283C42.2072 22.6311 43.071 23.3606 43.7333 24.2583C43.861 24.4266 43.9372 24.6283 43.9528 24.839C43.9684 25.0497 43.9227 25.2605 43.8212 25.4458Z" fill="#87B153"/>
<path d="M70.0986 40.4416C68.7701 38.6603 66.9702 37.2857 64.9021 36.4729C66.0789 35.5642 66.942 34.3101 67.3704 32.8862C67.7988 31.4624 67.771 29.9402 67.2909 28.533C66.8108 27.1258 65.9025 25.904 64.6932 25.0388C63.484 24.1737 62.0344 23.7085 60.5475 23.7085C59.0606 23.7085 57.611 24.1737 56.4017 25.0388C55.1925 25.904 54.2842 27.1258 53.8041 28.533C53.324 29.9402 53.2962 31.4624 53.7246 32.8862C54.153 34.3101 55.0161 35.5642 56.1929 36.4729C54.1248 37.2857 52.3249 38.6603 50.9964 40.4416C50.3482 41.3168 49.957 42.3556 49.8668 43.441C49.7766 44.5264 49.991 45.6154 50.4858 46.5857C50.9792 47.5758 51.7393 48.4084 52.6806 48.9896C53.6218 49.5708 54.7067 49.8775 55.8129 49.8751H65.282C66.3879 49.877 67.4723 49.5701 68.413 48.989C69.3538 48.4078 70.1136 47.5754 70.6068 46.5857C71.1025 45.6158 71.3176 44.5268 71.2278 43.4412C71.138 42.3557 70.7469 41.3168 70.0986 40.4416ZM60.5487 28.5001C61.0184 28.5001 61.4776 28.6394 61.8682 28.9003C62.2587 29.1613 62.5631 29.5322 62.7429 29.9662C62.9226 30.4002 62.9697 30.8777 62.878 31.3384C62.7864 31.7991 62.5602 32.2223 62.2281 32.5545C61.8959 32.8866 61.4727 33.1128 61.012 33.2044C60.5513 33.2961 60.0738 33.249 59.6398 33.0693C59.2058 32.8895 58.8349 32.5851 58.5739 32.1946C58.313 31.804 58.1737 31.3448 58.1737 30.8751C58.1737 30.2452 58.4239 29.6411 58.8693 29.1957C59.3147 28.7503 59.9188 28.5001 60.5487 28.5001ZM66.3674 44.4482C66.27 44.6528 66.116 44.8253 65.9237 44.9453C65.7313 45.0652 65.5087 45.1276 65.282 45.1251H55.8129C55.5863 45.1276 55.3636 45.0652 55.1713 44.9453C54.979 44.8253 54.825 44.6528 54.7275 44.4482C54.6252 44.2631 54.579 44.0523 54.5946 43.8414C54.6102 43.6304 54.6869 43.4287 54.8154 43.2607C55.4778 42.3635 56.3415 41.6344 57.3371 41.1319C58.3327 40.6294 59.4323 40.3676 60.5475 40.3676C61.6627 40.3676 62.7623 40.6294 63.7579 41.1319C64.7535 41.6344 65.6172 42.3635 66.2796 43.2607C66.4081 43.4287 66.4848 43.6304 66.5004 43.8414C66.516 44.0523 66.4698 44.2631 66.3674 44.4482Z" fill="#87B153"/>
<path d="M19.8077 36.4729C20.9846 35.5642 21.8477 34.3101 22.276 32.8862C22.7044 31.4624 22.6766 29.9402 22.1965 28.533C21.7165 27.1258 20.8082 25.904 19.5989 25.0388C18.3897 24.1737 16.94 23.7085 15.4532 23.7085C13.9663 23.7085 12.5167 24.1737 11.3074 25.0388C10.0981 25.904 9.18984 27.1258 8.70976 28.533C8.22968 29.9402 8.20188 31.4624 8.63026 32.8862C9.05864 34.3101 9.92172 35.5642 11.0986 36.4729C9.03043 37.2857 7.23057 38.6603 5.90209 40.4416C5.25374 41.3168 4.86264 42.3557 4.77284 43.4412C4.68305 44.5268 4.89812 45.6158 5.39384 46.5857C5.88703 47.5754 6.64682 48.4078 7.5876 48.989C8.52839 49.5701 9.61277 49.877 10.7186 49.8751H20.1877C21.2939 49.8775 22.3788 49.5708 23.3201 48.9896C24.2613 48.4084 25.0215 47.5758 25.5148 46.5857C26.0097 45.6154 26.2241 44.5264 26.1338 43.441C26.0436 42.3556 25.6524 41.3168 25.0042 40.4416C23.6757 38.6603 21.8759 37.2857 19.8077 36.4729ZM15.452 28.5001C15.9217 28.5001 16.3809 28.6394 16.7714 28.9003C17.162 29.1613 17.4664 29.5322 17.6462 29.9662C17.8259 30.4002 17.873 30.8777 17.7813 31.3384C17.6897 31.7991 17.4635 32.2223 17.1313 32.5545C16.7992 32.8866 16.376 33.1128 15.9153 33.2044C15.4546 33.2961 14.9771 33.249 14.5431 33.0693C14.1091 32.8895 13.7382 32.5851 13.4772 32.1946C13.2163 31.804 13.077 31.3448 13.077 30.8751C13.077 30.2452 13.3272 29.6411 13.7726 29.1957C14.218 28.7503 14.8221 28.5001 15.452 28.5001ZM21.2731 44.4482C21.1756 44.6528 21.0217 44.8253 20.8293 44.9453C20.637 45.0652 20.4144 45.1276 20.1877 45.1251H10.7186C10.4919 45.1276 10.2693 45.0652 10.077 44.9453C9.88465 44.8253 9.73067 44.6528 9.63321 44.4482C9.53084 44.2631 9.48463 44.0523 9.50023 43.8414C9.51584 43.6304 9.59259 43.4287 9.72109 43.2607C10.3835 42.3635 11.2472 41.6344 12.2428 41.1319C13.2383 40.6294 14.338 40.3676 15.4532 40.3676C16.5683 40.3676 17.668 40.6294 18.6635 41.1319C19.6591 41.6344 20.5228 42.3635 21.1852 43.2607C21.3137 43.4287 21.3905 43.6304 21.4061 43.8414C21.4217 44.0523 21.3755 44.2631 21.2731 44.4482Z" fill="#87B153"/>
<path d="M42.3558 57.8479C43.5324 56.939 44.3952 55.6848 44.8233 54.261C45.2514 52.8373 45.2234 51.3152 44.7432 49.9081C44.2631 48.5011 43.3547 47.2795 42.1455 46.4145C40.9363 45.5494 39.4868 45.0844 38.0001 45.0844C36.5133 45.0844 35.0638 45.5494 33.8546 46.4145C32.6454 47.2795 31.7371 48.5011 31.2569 49.9081C30.7768 51.3152 30.7488 52.8373 31.1769 54.261C31.605 55.6848 32.4678 56.939 33.6443 57.8479C31.5769 58.6608 29.7779 60.0354 28.4502 61.8165C27.801 62.6913 27.4091 63.7301 27.3189 64.8158C27.2287 65.9014 27.4437 66.9907 27.9396 67.9606C28.4328 68.9504 29.1926 69.7827 30.1334 70.3639C31.0741 70.9451 32.1585 71.252 33.2643 71.25H42.7358C43.8417 71.252 44.926 70.9451 45.8668 70.3639C46.8076 69.7827 47.5674 68.9504 48.0606 67.9606C48.5565 66.9907 48.7715 65.9014 48.6813 64.8158C48.591 63.7301 48.1992 62.6913 47.55 61.8165C46.2223 60.0354 44.4233 58.6608 42.3558 57.8479ZM38.0001 49.875C38.4698 49.875 38.929 50.0143 39.3196 50.2753C39.7101 50.5362 40.0145 50.9072 40.1943 51.3411C40.3741 51.7751 40.4211 52.2526 40.3295 52.7134C40.2378 53.1741 40.0116 53.5972 39.6795 53.9294C39.3473 54.2615 38.9241 54.4877 38.4634 54.5794C38.0027 54.671 37.5252 54.624 37.0912 54.4442C36.6572 54.2645 36.2863 53.9601 36.0253 53.5695C35.7644 53.1789 35.6251 52.7197 35.6251 52.25C35.6251 51.6201 35.8753 51.016 36.3207 50.5706C36.7661 50.1252 37.3702 49.875 38.0001 49.875ZM43.8212 65.8231C43.7238 66.0278 43.5698 66.2003 43.3775 66.3202C43.1851 66.4401 42.9625 66.5025 42.7358 66.5H33.2643C33.0377 66.5025 32.8151 66.4401 32.6227 66.3202C32.4304 66.2003 32.2764 66.0278 32.179 65.8231C32.0772 65.6379 32.0313 65.4271 32.0469 65.2164C32.0625 65.0056 32.1389 64.8039 32.2668 64.6356C32.9292 63.738 33.793 63.0084 34.7888 62.5057C35.7846 62.0029 36.8846 61.7409 38.0001 61.7409C39.1156 61.7409 40.2156 62.0029 41.2114 62.5057C42.2072 63.0084 43.071 63.738 43.7333 64.6356C43.8607 64.8041 43.9368 65.0058 43.9524 65.2164C43.968 65.4271 43.9224 65.6377 43.8212 65.8231Z" fill="#87B153"/>
</svg>
