<svg width="191" height="91" viewBox="0 0 191 91" fill="none" xmlns="http://www.w3.org/2000/svg">
<g clip-path="url(#clip0_939_10969)">
<path d="M80.5158 18.6764H73.9842C73.9808 17.8595 73.3179 17.1982 72.5001 17.1982C71.6824 17.1982 71.0195 17.8595 71.0161 18.6764H64.4845C63.6647 18.6764 63.0001 19.3411 63.0001 20.1608C63.0001 20.9804 63.6647 21.6451 64.4845 21.6451H71.0158V23.4264H58.7641C58.745 23.4047 58.7264 23.3826 58.7058 23.362C55.6842 20.3405 51.6667 18.6764 47.3935 18.6764H40.6063C36.3331 18.6764 32.3156 20.3405 29.294 23.362C29.2734 23.3826 29.255 23.4047 29.2357 23.4264H18.4688H16.9844V21.6451H23.5157C24.3355 21.6451 25 20.9804 25 20.1608C25 19.3411 24.3355 18.6764 23.5157 18.6764H16.9841C16.9807 17.8595 16.3178 17.1982 15.5 17.1982C14.6823 17.1982 14.0194 17.8595 14.0159 18.6764H7.48438C6.66456 18.6764 6 19.3411 6 20.1608C6 20.9804 6.66456 21.6451 7.48438 21.6451H14.0156V23.4264H12.5313C11.7114 23.4264 11.0469 24.0911 11.0469 24.9108V27.8795C11.0469 30.335 13.0446 32.3327 15.5 32.3327C17.9555 32.3327 19.9532 30.335 19.9532 27.8795V26.3952H28.8594V31.3948C28.8594 33.2482 30.0655 34.824 31.7338 35.3817L25.1115 40.6286C24.7562 40.91 24.5489 41.3385 24.5489 41.792V44.8014C24.5489 45.6211 25.2135 46.2858 26.0333 46.2858C26.8531 46.2858 27.5177 45.6211 27.5177 44.8014V42.5097L34.3864 37.0675L35.7582 39.5761C36.0186 40.0523 36.5181 40.3483 37.0606 40.3483H42.5157V43.6144C41.1223 44.1971 40.1407 45.5742 40.1407 47.1764C40.1407 49.3046 41.8721 51.0358 44.0001 51.0358C46.1281 51.0358 47.8595 49.3046 47.8595 47.1764C47.8595 45.5741 46.8778 44.1971 45.4845 43.6144V40.3483H50.9395C51.4821 40.3483 51.9816 40.0523 52.2419 39.5761L53.5817 37.1262L60.1739 42.4972V44.8014C60.1739 45.6211 60.8384 46.2858 61.6582 46.2858C62.4781 46.2858 63.1426 45.6211 63.1426 44.8014V41.792C63.1426 41.3457 62.9418 40.9231 62.5958 40.6412L56.1772 35.4114C57.8916 34.881 59.1406 33.2812 59.1406 31.3948V26.3952H68.0469V27.8795C68.0469 30.335 70.0445 32.3327 72.5 32.3327C74.9554 32.3327 76.9531 30.335 76.9531 27.8795V24.9108C76.9531 24.0911 76.2886 23.4264 75.4687 23.4264H74.5781H73.9844V21.6451H80.5156C81.3354 21.6451 82 20.9804 82 20.1608C82 19.3409 81.3356 18.6764 80.5158 18.6764ZM16.9844 27.8795C16.9844 28.698 16.3185 29.3639 15.5 29.3639C14.6815 29.3639 14.0156 28.698 14.0156 27.8795V26.3952H15.5H16.9844V27.8795ZM44.0001 48.0671C43.5089 48.0671 43.1094 47.6676 43.1094 47.1764C43.1094 46.6853 43.5089 46.2858 44.0001 46.2858C44.4913 46.2858 44.8907 46.6853 44.8907 47.1764C44.8907 47.6675 44.4913 48.0671 44.0001 48.0671ZM50.0595 37.3795H37.9405L36.9664 35.5983H51.0335L50.0595 37.3795ZM56.172 31.3945C56.172 32.0754 55.618 32.6292 54.9371 32.6292H33.063C32.3821 32.6292 31.8282 32.0754 31.8282 31.3945V25.0457C34.2333 22.8482 37.3275 21.6451 40.6065 21.6451H47.3937C50.6727 21.6451 53.7668 22.8482 56.172 25.0457V31.3945ZM73.9845 26.3952V27.8795C73.9845 28.698 73.3186 29.3639 72.5001 29.3639C71.6816 29.3639 71.0158 28.698 71.0158 27.8795V26.3952H73.9845Z" fill="#F2EACB" stroke="#F2EACB" stroke-width="0.3"/>
<path d="M50.5283 26.4705C49.7085 26.4705 49.0439 27.1352 49.0439 27.9548V27.9741C49.0439 28.794 49.7085 29.4585 50.5283 29.4585C51.3481 29.4585 52.0127 28.7938 52.0127 27.9741V27.9548C52.0127 27.1353 51.3481 26.4705 50.5283 26.4705Z" fill="#F2EACB" stroke="#F2EACB" stroke-width="0.3"/>
<path d="M44 26.4705C43.1802 26.4705 42.5156 27.1352 42.5156 27.9548V27.9741C42.5156 28.794 43.1802 29.4585 44 29.4585C44.8198 29.4585 45.4844 28.7938 45.4844 27.9741V27.9548C45.4844 27.1353 44.8198 26.4705 44 26.4705Z" fill="#F2EACB" stroke="#F2EACB" stroke-width="0.3"/>
<path d="M37.4722 26.4705C36.6523 26.4705 35.9878 27.1352 35.9878 27.9548V27.9741C35.9878 28.794 36.6523 29.4585 37.4722 29.4585C38.292 29.4585 38.9565 28.7938 38.9565 27.9741V27.9548C38.9565 27.1353 38.292 26.4705 37.4722 26.4705Z" fill="#F2EACB" stroke="#F2EACB" stroke-width="0.3"/>
<path d="M26.0332 48.3657C25.2134 48.3657 24.5488 49.0304 24.5488 49.8501V49.9488C24.5488 50.7685 25.2134 51.4332 26.0332 51.4332C26.853 51.4332 27.5176 50.7686 27.5176 49.9488V49.8501C27.5176 49.0306 26.853 48.3657 26.0332 48.3657Z" fill="#F2EACB" stroke="#F2EACB" stroke-width="0.3"/>
<path d="M61.6582 48.3162C60.8384 48.3162 60.1738 48.9809 60.1738 49.8005V49.8503C60.1738 50.6699 60.8384 51.3346 61.6582 51.3346C62.478 51.3346 63.1426 50.6699 63.1426 49.8503V49.8005C63.1426 48.9807 62.478 48.3162 61.6582 48.3162Z" fill="#F2EACB" stroke="#F2EACB" stroke-width="0.3"/>
<g clip-path="url(#clip1_939_10969)">
<path d="M53.4709 54.2617C53.7209 54.2617 53.9709 54.2617 54.1793 54.3034C54.2626 55.2617 54.2681 57.3566 53.1431 58.69C52.3097 59.7316 50.8876 60.0951 48.9709 60.0951H48.4293C48.3459 58.1784 48.7209 56.6784 49.5959 55.7201C50.6376 54.5117 52.3043 54.2617 53.4709 54.2617ZM52.7572 52.7141C50.4655 52.7141 46.0481 55.0055 46.7147 61.5471C47.1731 61.5888 49.4417 61.5471 49.8584 61.5471C57.3167 61.5471 55.5728 52.7141 55.5728 52.7141C55.5728 52.7141 53.6322 52.7141 52.7572 52.7141Z" fill="#87B153" stroke="#87B153" stroke-width="0.2"/>
</g>
<g clip-path="url(#clip2_939_10969)">
<path d="M46.4709 69.2617C46.7209 69.2617 46.9709 69.2617 47.1793 69.3034C47.2626 70.2617 47.2681 72.3566 46.1431 73.69C45.3097 74.7316 43.8876 75.0951 41.9709 75.0951H41.4293C41.3459 73.1784 41.7209 71.6784 42.5959 70.7201C43.6376 69.5117 45.3043 69.2617 46.4709 69.2617ZM45.7572 67.7141C43.4655 67.7141 39.0481 70.0055 39.7147 76.5471C40.1731 76.5888 42.4417 76.5471 42.8584 76.5471C50.3167 76.5471 48.5728 67.7141 48.5728 67.7141C48.5728 67.7141 46.6322 67.7141 45.7572 67.7141Z" fill="#87B153" stroke="#87B153" stroke-width="0.2"/>
</g>
<g clip-path="url(#clip3_939_10969)">
<path d="M39.4709 58.2617C39.7209 58.2617 39.9709 58.2617 40.1793 58.3034C40.2626 59.2617 40.2681 61.3566 39.1431 62.69C38.3097 63.7316 36.8876 64.0951 34.9709 64.0951H34.4293C34.3459 62.1784 34.7209 60.6784 35.5959 59.7201C36.6376 58.5117 38.3043 58.2617 39.4709 58.2617ZM38.7572 56.7141C36.4655 56.7141 32.0481 59.0055 32.7147 65.5471C33.1731 65.5888 35.4417 65.5471 35.8584 65.5471C43.3167 65.5471 41.5728 56.7141 41.5728 56.7141C41.5728 56.7141 39.6322 56.7141 38.7572 56.7141Z" fill="#87B153" stroke="#87B153" stroke-width="0.2"/>
</g>
</g>
<path d="M150 52.125C149.046 52.125 148.273 52.8455 148.273 53.734V53.841C148.273 54.7295 149.046 55.45 150 55.45C150.954 55.45 151.728 54.7297 151.728 53.841V53.734C151.728 52.8457 150.954 52.125 150 52.125Z" fill="#F59927" stroke="#F59927" stroke-width="0.3"/>
<path d="M154.935 56.875C153.981 56.875 153.208 57.5955 153.208 58.484V58.591C153.208 59.4795 153.981 60.2 154.935 60.2C155.889 60.2 156.663 59.4797 156.663 58.591V58.484C156.663 57.5957 155.889 56.875 154.935 56.875Z" fill="#F59927" stroke="#F59927" stroke-width="0.3"/>
<path d="M145.065 56.875C144.111 56.875 143.338 57.5955 143.338 58.484V58.591C143.338 59.4795 144.111 60.2 145.065 60.2C146.019 60.2 146.792 59.4797 146.792 58.591V58.484C146.792 57.5957 146.019 56.875 145.065 56.875Z" fill="#F59927" stroke="#F59927" stroke-width="0.3"/>
<path d="M150 61.625C149.046 61.625 148.273 62.3455 148.273 63.234V63.341C148.273 64.2295 149.046 64.95 150 64.95C150.954 64.95 151.728 64.2297 151.728 63.341V63.234C151.728 62.3457 150.954 61.625 150 61.625Z" fill="#F59927" stroke="#F59927" stroke-width="0.3"/>
<path d="M159.87 61.625C158.916 61.625 158.143 62.3455 158.143 63.234V63.341C158.143 64.2295 158.916 64.95 159.87 64.95C160.824 64.95 161.598 64.2297 161.598 63.341V63.234C161.598 62.3457 160.824 61.625 159.87 61.625Z" fill="#F59927" stroke="#F59927" stroke-width="0.3"/>
<path d="M140.13 61.625C139.176 61.625 138.403 62.3455 138.403 63.234V63.341C138.403 64.2295 139.176 64.95 140.13 64.95C141.084 64.95 141.857 64.2297 141.857 63.341V63.234C141.857 62.3457 141.084 61.625 140.13 61.625Z" fill="#F59927" stroke="#F59927" stroke-width="0.3"/>
<path d="M145.065 66.375C144.111 66.375 143.338 67.0955 143.338 67.984V68.091C143.338 68.9795 144.111 69.7 145.065 69.7C146.019 69.7 146.792 68.9797 146.792 68.091V67.984C146.792 67.0957 146.019 66.375 145.065 66.375Z" fill="#F59927" stroke="#F59927" stroke-width="0.3"/>
<path d="M154.935 66.375C153.981 66.375 153.208 67.0955 153.208 67.984V68.091C153.208 68.9795 153.981 69.7 154.935 69.7C155.889 69.7 156.663 68.9797 156.663 68.091V67.984C156.663 67.0957 155.889 66.375 154.935 66.375Z" fill="#F59927" stroke="#F59927" stroke-width="0.3"/>
<path d="M164.805 66.375C163.851 66.375 163.078 67.0955 163.078 67.984V68.091C163.078 68.9795 163.851 69.7 164.805 69.7C165.759 69.7 166.533 68.9797 166.533 68.091V67.984C166.533 67.0957 165.759 66.375 164.805 66.375Z" fill="#F59927" stroke="#F59927" stroke-width="0.3"/>
<path d="M135.195 66.375C134.241 66.375 133.468 67.0955 133.468 67.984V68.091C133.468 68.9795 134.241 69.7 135.195 69.7C136.149 69.7 136.922 68.9797 136.922 68.091V67.984C136.922 67.0957 136.149 66.375 135.195 66.375Z" fill="#F59927" stroke="#F59927" stroke-width="0.3"/>
<path d="M140.13 71.125C139.176 71.125 138.403 71.8455 138.403 72.734V72.841C138.403 73.7295 139.176 74.45 140.13 74.45C141.084 74.45 141.857 73.7297 141.857 72.841V72.734C141.857 71.8457 141.084 71.125 140.13 71.125Z" fill="#F59927" stroke="#F59927" stroke-width="0.3"/>
<path d="M150.001 71.125C149.047 71.125 148.273 71.8455 148.273 72.734V72.841C148.273 73.7295 149.047 74.45 150.001 74.45C150.955 74.45 151.728 73.7297 151.728 72.841V72.734C151.728 71.8457 150.955 71.125 150.001 71.125Z" fill="#F59927" stroke="#F59927" stroke-width="0.3"/>
<path d="M159.87 71.125C158.916 71.125 158.143 71.8455 158.143 72.734V72.841C158.143 73.7295 158.916 74.45 159.87 74.45C160.824 74.45 161.598 73.7297 161.598 72.841V72.734C161.598 71.8457 160.824 71.125 159.87 71.125Z" fill="#F59927" stroke="#F59927" stroke-width="0.3"/>
<path d="M186.516 15.6764H179.984C179.981 14.8595 179.318 14.1982 178.5 14.1982C177.682 14.1982 177.019 14.8595 177.016 15.6764H170.484C169.665 15.6764 169 16.3411 169 17.1608C169 17.9804 169.665 18.6451 170.484 18.6451H177.016V20.4264H164.764C164.745 20.4047 164.726 20.3826 164.706 20.362C161.684 17.3405 157.667 15.6764 153.394 15.6764H146.606C142.333 15.6764 138.316 17.3405 135.294 20.362C135.273 20.3826 135.255 20.4047 135.236 20.4264H124.469H122.984V18.6451H129.516C130.335 18.6451 131 17.9804 131 17.1608C131 16.3411 130.335 15.6764 129.516 15.6764H122.984C122.981 14.8595 122.318 14.1982 121.5 14.1982C120.682 14.1982 120.019 14.8595 120.016 15.6764H113.484C112.665 15.6764 112 16.3411 112 17.1608C112 17.9804 112.665 18.6451 113.484 18.6451H120.016V20.4264H118.531C117.711 20.4264 117.047 21.0911 117.047 21.9108V24.8795C117.047 27.335 119.045 29.3327 121.5 29.3327C123.955 29.3327 125.953 27.335 125.953 24.8795V23.3952H134.859V28.3948C134.859 30.2482 136.065 31.824 137.734 32.3817L131.112 37.6286C130.756 37.91 130.549 38.3385 130.549 38.792V41.8014C130.549 42.6211 131.213 43.2858 132.033 43.2858C132.853 43.2858 133.518 42.6211 133.518 41.8014V39.5097L140.386 34.0675L141.758 36.5761C142.019 37.0523 142.518 37.3483 143.061 37.3483H148.516V40.6144C147.122 41.1971 146.141 42.5742 146.141 44.1764C146.141 46.3046 147.872 48.0358 150 48.0358C152.128 48.0358 153.859 46.3046 153.859 44.1764C153.859 42.5741 152.878 41.1971 151.484 40.6144V37.3483H156.94C157.482 37.3483 157.982 37.0523 158.242 36.5761L159.582 34.1262L166.174 39.4972V41.8014C166.174 42.6211 166.838 43.2858 167.658 43.2858C168.478 43.2858 169.143 42.6211 169.143 41.8014V38.792C169.143 38.3457 168.942 37.9231 168.596 37.6412L162.177 32.4114C163.892 31.881 165.141 30.2812 165.141 28.3948V23.3952H174.047V24.8795C174.047 27.335 176.045 29.3327 178.5 29.3327C180.955 29.3327 182.953 27.335 182.953 24.8795V21.9108C182.953 21.0911 182.289 20.4264 181.469 20.4264H180.578H179.984V18.6451H186.516C187.335 18.6451 188 17.9804 188 17.1608C188 16.3409 187.336 15.6764 186.516 15.6764ZM122.984 24.8795C122.984 25.698 122.319 26.3639 121.5 26.3639C120.682 26.3639 120.016 25.698 120.016 24.8795V23.3952H121.5H122.984V24.8795ZM150 45.0671C149.509 45.0671 149.109 44.6676 149.109 44.1764C149.109 43.6853 149.509 43.2858 150 43.2858C150.491 43.2858 150.891 43.6853 150.891 44.1764C150.891 44.6675 150.491 45.0671 150 45.0671ZM156.059 34.3795H143.941L142.966 32.5983H157.034L156.059 34.3795ZM162.172 28.3945C162.172 29.0754 161.618 29.6292 160.937 29.6292H139.063C138.382 29.6292 137.828 29.0754 137.828 28.3945V22.0457C140.233 19.8482 143.328 18.6451 146.606 18.6451H153.394C156.673 18.6451 159.767 19.8482 162.172 22.0457V28.3945ZM179.985 23.3952V24.8795C179.985 25.698 179.319 26.3639 178.5 26.3639C177.682 26.3639 177.016 25.698 177.016 24.8795V23.3952H179.985Z" fill="#F2EACB" stroke="#F2EACB" stroke-width="0.3"/>
<path d="M156.528 23.4705C155.709 23.4705 155.044 24.1352 155.044 24.9548V24.9741C155.044 25.794 155.709 26.4585 156.528 26.4585C157.348 26.4585 158.013 25.7938 158.013 24.9741V24.9548C158.013 24.1353 157.348 23.4705 156.528 23.4705Z" fill="#F2EACB" stroke="#F2EACB" stroke-width="0.3"/>
<path d="M150 23.4705C149.18 23.4705 148.516 24.1352 148.516 24.9548V24.9741C148.516 25.794 149.18 26.4585 150 26.4585C150.82 26.4585 151.484 25.7938 151.484 24.9741V24.9548C151.484 24.1353 150.82 23.4705 150 23.4705Z" fill="#F2EACB" stroke="#F2EACB" stroke-width="0.3"/>
<path d="M143.472 23.4705C142.652 23.4705 141.988 24.1352 141.988 24.9548V24.9741C141.988 25.794 142.652 26.4585 143.472 26.4585C144.292 26.4585 144.957 25.7938 144.957 24.9741V24.9548C144.957 24.1353 144.292 23.4705 143.472 23.4705Z" fill="#F2EACB" stroke="#F2EACB" stroke-width="0.3"/>
<path d="M132.033 45.3657C131.213 45.3657 130.549 46.0304 130.549 46.8501V46.9488C130.549 47.7685 131.213 48.4332 132.033 48.4332C132.853 48.4332 133.518 47.7686 133.518 46.9488V46.8501C133.518 46.0306 132.853 45.3657 132.033 45.3657Z" fill="#F2EACB" stroke="#F2EACB" stroke-width="0.3"/>
<path d="M167.658 45.3162C166.838 45.3162 166.174 45.9809 166.174 46.8005V46.8503C166.174 47.6699 166.838 48.3346 167.658 48.3346C168.478 48.3346 169.143 47.6699 169.143 46.8503V46.8005C169.143 45.9807 168.478 45.3162 167.658 45.3162Z" fill="#F2EACB" stroke="#F2EACB" stroke-width="0.3"/>
<defs>
<clipPath id="clip0_939_10969">
<rect width="76" height="76" fill="white" transform="translate(6 7)"/>
</clipPath>
<clipPath id="clip1_939_10969">
<rect width="10" height="10" fill="white" transform="translate(46 52)"/>
</clipPath>
<clipPath id="clip2_939_10969">
<rect width="10" height="10" fill="white" transform="translate(39 67)"/>
</clipPath>
<clipPath id="clip3_939_10969">
<rect width="10" height="10" fill="white" transform="translate(32 56)"/>
</clipPath>
</defs>
</svg>
